<?xml version="1.0" encoding="UTF-8" standalone="no"?>
<!DOCTYPE svg PUBLIC "-//W3C//DTD SVG 1.1//EN" "http://www.w3.org/Graphics/SVG/1.1/DTD/svg11.dtd">
<svg width="100%" height="100%" viewBox="0 0 512 512" version="1.1" xmlns="http://www.w3.org/2000/svg" xmlns:xlink="http://www.w3.org/1999/xlink" xml:space="preserve" xmlns:serif="http://www.serif.com/" style="fill-rule:evenodd;clip-rule:evenodd;stroke-linejoin:round;stroke-miterlimit:2;">
    <g transform="matrix(1.91336,0,0,1.91336,-232.722,-233.115)">
        <g id="svgg">
            <path id="path0" d="M219.692,141.011C197.497,144.409 181.424,149.281 164.615,157.708C153.468,163.295 153.951,162.196 159.473,169.43C171.163,184.745 180.362,213.563 184.815,248.813L186.305,260.612L190.2,256.481C198.688,247.482 198.976,247.442 255.116,247.412C310.928,247.382 310.488,247.325 319.035,255.654C324.334,260.817 324.12,261.123 326.1,245.538C330.369,211.949 340.764,180.985 352.113,168.06L355.756,163.91L349.263,160.195C318.753,142.739 262.656,134.434 219.692,141.011M130.73,165.739C113.578,174.193 119.014,199.415 137.621,197.712L145.396,197L148.946,204.654C157.688,223.505 162.883,256.317 164.504,302.917L165.312,326.154L345.846,326.154L345.846,309.717C345.846,267.747 352.518,223.109 361.586,204.418L364.923,197.538L371.505,197.946C384.937,198.777 390.101,192.801 389.102,177.581C388.831,173.455 381.915,166.366 376.61,164.776C353.24,157.774 334.871,206.924 329.177,291.692C328.745,298.123 327.82,304.077 327.122,304.923C325.126,307.342 185.476,307.146 183.051,304.721C181.802,303.473 181.097,298.166 180.555,285.952C177.117,208.501 154.531,154.008 130.73,165.739M261.391,170.21C265.025,175.099 262.324,180.132 255.771,180.683C248.371,181.305 245.305,175.283 249.989,169.329C253.301,165.118 257.868,165.471 261.391,170.21M211.007,176.274C216.226,183.725 207.1,192.33 200.405,186.271C197.85,183.959 197.389,177.257 199.631,175.015C202.164,172.482 208.871,173.224 211.007,176.274M313.304,176.555C318.561,184.577 307.534,192.573 301.606,185.037C297.405,179.696 300.4,173.538 307.199,173.538C310.223,173.538 311.857,174.346 313.304,176.555M235.686,203.86C241.099,205.937 239.971,215.958 234.16,217.416C227.018,219.209 221.776,212.193 225.739,206.145C227.736,203.097 231.465,202.24 235.686,203.86M286.084,205.812C288.663,209.494 288.496,212.428 285.538,215.385C278.718,222.205 268.791,212.484 275.268,205.328C278.113,202.184 283.719,202.435 286.084,205.812M201.605,257.281C192.143,262.278 188.326,271.012 188.315,287.692L188.308,297.846L321.443,297.846L321.029,283.904C320.539,267.39 317.975,261.911 308.616,257.38C300.581,253.49 208.942,253.406 201.605,257.281M174.793,335.692C174.806,336.877 175.632,345.046 176.627,353.846C177.623,362.646 178.442,370.262 178.449,370.769C178.456,371.277 180.882,371.692 183.841,371.692L189.22,371.692L190.665,357.846C191.46,350.231 192.425,341.646 192.81,338.769L193.51,333.538L184.14,333.538C176.027,333.538 174.772,333.828 174.793,335.692M316.732,337.538C317.116,339.738 318.087,348.323 318.89,356.615L320.349,371.692L330.926,371.692L331.639,366.462C332.848,357.597 334.748,339.227 334.759,336.308C334.769,333.678 334.299,333.538 325.401,333.538L316.034,333.538L316.732,337.538"/>
        </g>
    </g>
</svg>
