<svg viewBox="0 0 1655 400" xmlns="http://www.w3.org/2000/svg" fill-rule="evenodd" clip-rule="evenodd" stroke-linejoin="bevel"><path d="M97.141 113.474h1460.72M97.141 128.401h1460.72M97.141 143.328h1460.72M97.141 158.255h1460.72M97.141 173.183h1460.72M97.141 243.175h1460.72M97.141 265.565h1460.72M97.141 287.956h1460.72M97.141 310.346h1460.72M97.141 332.737h1460.72M97.141 355.128h1460.72" fill="none" stroke="#000" stroke-width="1.64"/><path d="M508.994 274.522c20.853-11.659 48.682-.464 55.651 22.39-8.528-18.976-36.356-30.172-55.651-22.39M854.03 274.522c13.914-17.628 41.742-17.628 55.65 0-13.908-13.449-41.736-13.449-55.65 0M507.496 164.227c8.534 18.976 36.356 30.171 55.656 22.39-20.859 11.659-48.687.463-55.656-22.39M852.538 216.471c25.92-.269 53.742-26.391 55.65-52.244.957 28.9-26.871 55.022-55.65 52.244" stroke="#000" stroke-width="1.05" stroke-linecap="round" stroke-linejoin="round"/><path d="M98.484 242.354v113.593M1556.52 242.354v113.593M98.484 112.654v130.521M1556.52 112.654v61.35" fill="none" stroke="#000" stroke-width="2.68"/><path d="M382.646 123.684c-.359-2.328-1.792-4.537-4.837-4.537-2.985 0-4.717 1.851-5.015 2.209l.239-19.166a.817.817 0 00-.836-.836h-.717a.817.817 0 00-.836.836l.299 35.884c0 .478.358.836.836.836.119 0 .358-.06.477-.119.239-.12 4.12-2.03 7.345-5.673 2.268-2.567 3.164-5.493 3.164-7.941 0-.537-.06-1.015-.119-1.493m-4.12 2.329c0 .896-.239 3.642-1.732 5.911-1.015 1.553-3.045 3.165-4.179 4.06l.179-11.643c.119-.537 1.015-2.269 3.403-2.269 2.15 0 2.329 2.03 2.329 3.284v.657M1373.06 117.475a.677.677 0 00-.478-.179c-.06 0-.179.059-.239.059l-7.523 2.09v-10.449h-1.672v29.556c0 .477.358.776.836.776h.239l7.523-2.09v10.449h1.612v-29.555c0-.239-.119-.538-.298-.657m-1.314 14.807l-6.926 1.911v-9.792l6.926-1.97v9.851" fill-rule="nonzero"/><path d="M236.577 203.037h29.85M236.577 188.11h29.85M436.922 203.037h29.849M436.922 188.11h29.849M659.528 188.11h29.85M837.612 203.037h29.851M837.612 188.11h29.851M1060.21 203.037h29.85M1060.21 188.11h29.85M1282.82 203.037h29.85M1282.82 188.11h29.85" fill="none" stroke="#000" stroke-width="2.39"/><path d="M260.381 201.126V83.621M349.424 171.272V83.621M405.074 126.491v-42.87M460.726 201.126V83.621M516.379 148.881v-65.26M572.029 171.272V83.621M627.679 178.735V83.621M683.33 186.199V83.621M772.375 133.954V83.621M861.414 201.126V83.621M917.065 148.881v-65.26M972.715 171.272V83.621M1028.37 126.491v-42.87M1084.02 201.126V83.621M1139.67 148.881v-65.26M1195.32 171.272V83.621M1250.97 178.735V83.621M1306.62 208.59V83.621M1395.67 126.491v-42.87M1484.71 141.418V83.621" fill="none" stroke="#000" stroke-width="1.64"/><path d="M244.036 321.542h17.922v22.392h-17.922v-22.392" fill="#fff"/><path d="M246.693 332.739c0-1.607.136-3.024.407-4.252.27-1.228.613-2.19 1.029-2.885.415-.695.912-1.259 1.489-1.692.578-.433 1.133-.722 1.666-.867a6.462 6.462 0 011.692-.216c4.189 0 6.283 3.358 6.283 10.074 0 3.162-.536 5.575-1.611 7.242-1.074 1.673-2.631 2.509-4.672 2.509-2.058 0-3.62-.848-4.685-2.533-1.065-1.691-1.598-4.147-1.598-7.38m10.129-.054c0-5.164-1.282-7.746-3.846-7.746-2.563 0-3.845 2.609-3.845 7.827 0 5.271 1.264 7.906 3.791 7.906 1.336 0 2.32-.649 2.952-1.949.632-1.3.948-3.31.948-6.038" fill-rule="nonzero"/><path d="M244.036 276.76h17.922v22.391h-17.922V276.76" fill="#fff"/><path d="M246.883 284.707c.126-4.441 2.239-6.662 6.337-6.662 1.824 0 3.304.524 4.442 1.571 1.137 1.047 1.706 2.401 1.706 4.062 0 2.384-1.354 4.315-4.063 5.796l-2.708 1.462c-1.173.632-2.013 1.246-2.518 1.842a4.186 4.186 0 00-.948 2.112h10.101v2.356H246.45c.108-2.112.532-3.741 1.273-4.888.74-1.146 2.112-2.288 4.116-3.426l2.492-1.408c1.733-.993 2.599-2.257 2.599-3.792 0-1.029-.361-1.886-1.083-2.572-.722-.686-1.625-1.029-2.708-1.029-2.401 0-3.692 1.525-3.873 4.576h-2.383" fill-rule="nonzero"/><path d="M333.078 299.151H351v22.391h-17.922v-22.391" fill="#fff"/><path d="M335.925 307.098c.127-4.441 2.239-6.662 6.337-6.662 1.824 0 3.304.524 4.442 1.571 1.137 1.047 1.706 2.401 1.706 4.062 0 2.383-1.354 4.315-4.062 5.796l-2.708 1.462c-1.174.632-2.013 1.246-2.519 1.842a4.179 4.179 0 00-.948 2.112h10.102v2.356h-12.783c.108-2.112.533-3.742 1.273-4.889.74-1.146 2.112-2.288 4.116-3.425l2.492-1.408c1.733-.993 2.6-2.257 2.6-3.792 0-1.029-.361-1.887-1.084-2.573-.722-.686-1.624-1.029-2.708-1.029-2.401 0-3.692 1.526-3.872 4.577h-2.384" fill-rule="nonzero"/><path d="M388.73 254.37h17.921v22.39H388.73v-22.39" fill="#fff"/><path d="M391.576 262.317c.127-4.442 2.239-6.662 6.337-6.662 1.824 0 3.304.523 4.442 1.57 1.137 1.047 1.706 2.402 1.706 4.063 0 2.383-1.354 4.315-4.062 5.795l-2.708 1.463c-1.174.631-2.014 1.245-2.519 1.841a4.186 4.186 0 00-.948 2.112h10.102v2.357h-12.783c.108-2.113.533-3.742 1.273-4.888.74-1.147 2.112-2.289 4.116-3.427l2.492-1.408c1.733-.993 2.6-2.257 2.6-3.791 0-1.029-.361-1.887-1.084-2.573-.722-.686-1.625-1.029-2.708-1.029-2.401 0-3.692 1.525-3.873 4.577h-2.383" fill-rule="nonzero"/><path d="M444.381 321.542h17.922v22.392h-17.922v-22.392" fill="#fff"/><path d="M447.038 332.739c0-1.607.136-3.024.406-4.252.271-1.228.614-2.19 1.03-2.885.415-.695.911-1.259 1.489-1.692.578-.433 1.133-.722 1.665-.867a6.464 6.464 0 011.693-.216c4.189 0 6.283 3.358 6.283 10.074 0 3.162-.537 5.575-1.611 7.242-1.075 1.673-2.632 2.509-4.672 2.509-2.058 0-3.62-.848-4.685-2.533-1.065-1.691-1.598-4.147-1.598-7.38m10.129-.054c0-5.164-1.282-7.746-3.846-7.746s-3.845 2.609-3.845 7.827c0 5.271 1.263 7.906 3.791 7.906 1.336 0 2.32-.649 2.952-1.949.632-1.3.948-3.31.948-6.038" fill-rule="nonzero"/><path d="M500.033 276.76h17.923v22.391h-17.923V276.76" fill="#fff"/><path d="M502.88 284.707c.126-4.441 2.239-6.662 6.337-6.662 1.824 0 3.304.524 4.442 1.571 1.137 1.047 1.703 2.401 1.703 4.062 0 2.384-1.354 4.315-4.063 5.796l-2.708 1.462c-1.173.632-2.01 1.246-2.515 1.842a4.19 4.19 0 00-.951 2.112h10.104v2.356h-12.782c.108-2.112.529-3.741 1.269-4.888.741-1.146 2.113-2.288 4.117-3.426l2.491-1.408c1.734-.993 2.6-2.257 2.6-3.792 0-1.029-.361-1.886-1.083-2.572-.722-.686-1.625-1.029-2.708-1.029-2.401 0-3.689 1.525-3.87 4.576h-2.383" fill-rule="nonzero"/><path d="M555.684 299.151h17.922v22.391h-17.922v-22.391" fill="#fff"/><path d="M558.53 307.098c.127-4.441 2.239-6.662 6.337-6.662 1.824 0 3.304.524 4.442 1.571 1.137 1.047 1.703 2.401 1.703 4.062 0 2.383-1.354 4.315-4.062 5.796l-2.708 1.462c-1.174.632-2.011 1.246-2.516 1.842a4.183 4.183 0 00-.951 2.112h10.105v2.356h-12.783c.108-2.112.53-3.742 1.27-4.889.74-1.146 2.112-2.288 4.116-3.425l2.492-1.408c1.733-.993 2.6-2.257 2.6-3.792 0-1.029-.361-1.887-1.084-2.573-.722-.686-1.625-1.029-2.708-1.029-2.401 0-3.689 1.526-3.87 4.577h-2.383" fill-rule="nonzero"/><path d="M611.334 299.151h17.922v22.391h-17.922v-22.391" fill="#fff"/><path d="M613.994 310.348c0-1.607.132-3.024.403-4.252.271-1.228.614-2.189 1.029-2.884a5.812 5.812 0 011.493-1.693c.578-.433 1.131-.722 1.661-.866a6.463 6.463 0 011.697-.217c4.189 0 6.283 3.358 6.283 10.074 0 3.16-.542 5.575-1.613 7.245-1.077 1.67-2.63 2.505-4.67 2.505-2.058 0-3.623-.844-4.688-2.533-1.065-1.688-1.595-4.147-1.595-7.379m10.129-.054c0-5.164-1.282-7.746-3.846-7.746s-3.846 2.609-3.846 7.827c0 5.272 1.264 7.908 3.792 7.908 1.336 0 2.317-.65 2.949-1.95.632-1.3.951-3.313.951-6.039" fill-rule="nonzero"/><path d="M666.984 321.542h17.922v22.392h-17.922v-22.392" fill="#fff"/><path d="M675.789 324.912c-1.372 0-2.311.374-2.829 1.124-.511.749-.788 1.747-.824 2.992h-2.383c.09-4.134 2.094-6.201 6.012-6.201 1.823 0 3.256.469 4.291 1.408 1.041.939 1.559 2.23 1.559 3.873 0 1.95-.897 3.277-2.685 3.981 1.156.397 1.986.952 2.492 1.663.505.716.758 1.685.758 2.912 0 1.824-.59 3.28-1.769 4.364-1.186 1.083-2.762 1.624-4.73 1.624-3.936 0-6.049-2.07-6.338-6.204h2.384c.09 1.39.463 2.419 1.113 3.087.65.668 1.625 1.005 2.925 1.005 1.246 0 2.221-.343 2.925-1.017.704-.68 1.053-1.619 1.053-2.829 0-2.329-1.324-3.495-3.978-3.495l-1.005.027h-.295v-2.031c1.715-.036 2.931-.253 3.641-.65.716-.397 1.071-1.183 1.071-2.356 0-1.011-.301-1.81-.909-2.397-.601-.587-1.432-.88-2.479-.88" fill-rule="nonzero"/><path d="M666.984 276.76h17.922v22.391h-17.922V276.76" fill="#fff"/><path d="M669.831 284.707c.126-4.441 2.239-6.662 6.337-6.662 1.824 0 3.304.524 4.441 1.571 1.138 1.047 1.71 2.401 1.71 4.062 0 2.384-1.354 4.315-4.063 5.796l-2.708 1.462c-1.173.632-2.016 1.246-2.521 1.842-.506.596-.819 1.3-.945 2.112h10.098v2.356h-12.782c.108-2.112.535-3.741 1.275-4.888.741-1.146 2.113-2.288 4.117-3.426l2.491-1.408c1.734-.993 2.6-2.257 2.6-3.792 0-1.029-.361-1.886-1.083-2.572-.722-.686-1.625-1.029-2.708-1.029-2.401 0-3.695 1.525-3.876 4.576h-2.383" fill-rule="nonzero"/><path d="M756.03 254.37h17.922v22.39H756.03v-22.39" fill="#fff"/><path d="M764.533 261.179h-4.249v-1.706c1.842-.235 3.04-.56 3.599-.975.56-.415 1.048-1.363 1.463-2.843h1.571v19.201h-2.384v-13.677" fill-rule="nonzero"/><path d="M845.069 321.542h17.922v22.392h-17.922v-22.392" fill="#fff"/><path d="M847.729 332.739c0-1.607.132-3.024.403-4.252.271-1.228.614-2.19 1.029-2.885.416-.695.915-1.259 1.493-1.692.578-.433 1.131-.722 1.661-.867a6.506 6.506 0 011.697-.216c4.189 0 6.283 3.358 6.283 10.074 0 3.162-.542 5.575-1.613 7.242-1.077 1.673-2.63 2.509-4.67 2.509-2.058 0-3.623-.848-4.688-2.533-1.065-1.691-1.595-4.147-1.595-7.38m10.129-.054c0-5.164-1.282-7.746-3.846-7.746s-3.846 2.609-3.846 7.827c0 5.271 1.264 7.906 3.792 7.906 1.336 0 2.317-.649 2.949-1.949.632-1.3.951-3.31.951-6.038" fill-rule="nonzero"/><path d="M845.069 276.76h17.922v22.391h-17.922V276.76" fill="#fff"/><path d="M847.729 287.957c0-1.607.132-3.024.403-4.252.271-1.227.614-2.188 1.029-2.884.416-.695.915-1.259 1.493-1.692.578-.434 1.131-.723 1.661-.867a6.463 6.463 0 011.697-.217c4.189 0 6.283 3.358 6.283 10.075 0 3.159-.542 5.574-1.613 7.244-1.077 1.671-2.63 2.505-4.67 2.505-2.058 0-3.623-.844-4.688-2.532-1.065-1.688-1.595-4.148-1.595-7.38m10.129-.054c0-5.164-1.282-7.745-3.846-7.745s-3.846 2.609-3.846 7.826c0 5.272 1.264 7.908 3.792 7.908 1.336 0 2.317-.65 2.949-1.95.632-1.3.951-3.313.951-6.039" fill-rule="nonzero"/><path d="M900.719 276.76h17.922v22.391h-17.922V276.76" fill="#fff"/><path d="M903.566 284.707c.126-4.441 2.239-6.662 6.337-6.662 1.824 0 3.304.524 4.441 1.571 1.138 1.047 1.71 2.401 1.71 4.062 0 2.384-1.354 4.315-4.063 5.796l-2.708 1.462c-1.173.632-2.016 1.246-2.521 1.842-.506.596-.819 1.3-.945 2.112h10.098v2.356h-12.782c.108-2.112.535-3.741 1.275-4.888.741-1.146 2.113-2.288 4.117-3.426l2.491-1.408c1.734-.993 2.6-2.257 2.6-3.792 0-1.029-.361-1.886-1.083-2.572-.722-.686-1.625-1.029-2.708-1.029-2.401 0-3.695 1.525-3.876 4.576h-2.383" fill-rule="nonzero"/><path d="M956.37 299.151h17.922v22.391H956.37v-22.391" fill="#fff"/><path d="M959.222 307.098c.127-4.441 2.239-6.662 6.337-6.662 1.824 0 3.304.524 4.442 1.571 1.137 1.047 1.703 2.401 1.703 4.062 0 2.383-1.354 4.315-4.062 5.796l-2.709 1.462c-1.173.632-2.01 1.246-2.515 1.842a4.183 4.183 0 00-.951 2.112h10.105v2.356h-12.783c.108-2.112.53-3.742 1.27-4.889.74-1.146 2.112-2.288 4.116-3.425l2.492-1.408c1.733-.993 2.6-2.257 2.6-3.792 0-1.029-.361-1.887-1.084-2.573-.722-.686-1.625-1.029-2.708-1.029-2.401 0-3.689 1.526-3.87 4.577h-2.383" fill-rule="nonzero"/><path d="M1012.03 254.37h17.922v22.39h-17.922v-22.39" fill="#fff"/><path d="M1014.87 262.317c.126-4.442 2.238-6.662 6.337-6.662 1.823 0 3.304.523 4.441 1.57 1.138 1.047 1.703 2.402 1.703 4.063 0 2.383-1.354 4.315-4.062 5.795l-2.708 1.463c-1.174.631-2.01 1.245-2.516 1.841a4.207 4.207 0 00-.951 2.112h10.105v2.357h-12.783c.109-2.113.53-3.742 1.27-4.888.74-1.147 2.112-2.289 4.117-3.427l2.491-1.408c1.733-.993 2.6-2.257 2.6-3.791 0-1.029-.361-1.887-1.083-2.573-.723-.686-1.625-1.029-2.709-1.029-2.401 0-3.689 1.525-3.869 4.577h-2.383" fill-rule="nonzero"/><path d="M1067.68 321.542h17.922v22.392h-17.922v-22.392" fill="#fff"/><path d="M1070.33 332.739c0-1.607.139-3.024.41-4.252.27-1.228.613-2.19 1.029-2.885.415-.695.908-1.259 1.486-1.692.578-.433 1.138-.722 1.667-.867a6.465 6.465 0 011.691-.216c4.189 0 6.283 3.358 6.283 10.074 0 3.162-.535 5.575-1.607 7.242-1.077 1.673-2.636 2.509-4.676 2.509-2.058 0-3.617-.848-4.682-2.533-1.065-1.691-1.601-4.147-1.601-7.38m10.129-.054c0-5.164-1.282-7.746-3.846-7.746-2.563 0-3.845 2.609-3.845 7.827 0 5.271 1.263 7.906 3.791 7.906 1.336 0 2.323-.649 2.955-1.949.632-1.3.945-3.31.945-6.038" fill-rule="nonzero"/><path d="M1123.33 276.76h17.922v22.391h-17.922V276.76" fill="#fff"/><path d="M1126.17 284.707c.127-4.441 2.239-6.662 6.337-6.662 1.824 0 3.304.524 4.442 1.571 1.137 1.047 1.703 2.401 1.703 4.062 0 2.384-1.354 4.315-4.062 5.796l-2.709 1.462c-1.173.632-2.01 1.246-2.515 1.842a4.19 4.19 0 00-.951 2.112h10.105v2.356h-12.783c.108-2.112.529-3.741 1.27-4.888.74-1.146 2.112-2.288 4.116-3.426l2.492-1.408c1.733-.993 2.6-2.257 2.6-3.792 0-1.029-.362-1.886-1.084-2.572-.722-.686-1.625-1.029-2.708-1.029-2.401 0-3.689 1.525-3.87 4.576h-2.383" fill-rule="nonzero"/><path d="M1178.98 299.151h17.922v22.391h-17.922v-22.391" fill="#fff"/><path d="M1181.82 307.098c.126-4.441 2.238-6.662 6.337-6.662 1.823 0 3.304.524 4.441 1.571 1.138 1.047 1.709 2.401 1.709 4.062 0 2.383-1.354 4.315-4.062 5.796l-2.708 1.462c-1.174.632-2.016 1.246-2.522 1.842-.505.595-.818 1.299-.945 2.112h10.099v2.356h-12.783c.109-2.112.536-3.742 1.276-4.889.74-1.146 2.112-2.288 4.117-3.425l2.491-1.408c1.733-.993 2.6-2.257 2.6-3.792 0-1.029-.361-1.887-1.083-2.573-.723-.686-1.625-1.029-2.709-1.029-2.401 0-3.695 1.526-3.875 4.577h-2.383" fill-rule="nonzero"/><path d="M1234.63 299.151h17.922v22.391h-17.922v-22.391" fill="#fff"/><path d="M1237.29 310.348c0-1.607.133-3.024.404-4.252.27-1.228.613-2.189 1.029-2.884a5.795 5.795 0 011.492-1.693c.578-.433 1.132-.722 1.667-.866a6.39 6.39 0 011.691-.217c4.189 0 6.283 3.358 6.283 10.074 0 3.16-.535 5.575-1.613 7.245-1.071 1.67-2.63 2.505-4.67 2.505-2.058 0-3.623-.844-4.688-2.533-1.065-1.688-1.595-4.147-1.595-7.379m10.129-.054c0-5.164-1.282-7.746-3.846-7.746-2.563 0-3.845 2.609-3.845 7.827 0 5.272 1.263 7.908 3.791 7.908 1.336 0 2.317-.65 2.949-1.95.632-1.3.951-3.313.951-6.039" fill-rule="nonzero"/><path d="M1290.28 343.934h17.922v22.388h-17.922v-22.388" fill="#fff"/><path d="M1299.08 347.305c-1.372 0-2.311.373-2.828 1.119-.512.752-.789 1.751-.825 2.997h-2.383c.09-4.134 2.094-6.205 6.012-6.205 1.824 0 3.256.47 4.291 1.409 1.041.938 1.559 2.232 1.559 3.875 0 1.95-.897 3.274-2.684 3.978 1.155.397 1.986.951 2.491 1.667.506.71.759 1.685.759 2.913 0 1.824-.59 3.274-1.77 4.357-1.185 1.084-2.762 1.625-4.73 1.625-3.936 0-6.048-2.064-6.337-6.199h2.383c.09 1.391.463 2.42 1.113 3.088.65.668 1.625.999 2.925.999 1.246 0 2.221-.337 2.925-1.017.704-.674 1.053-1.619 1.053-2.829 0-2.329-1.324-3.49-3.978-3.49l-1.005.024h-.295v-2.028c1.715-.037 2.931-.253 3.641-.65.716-.398 1.071-1.186 1.071-2.36 0-1.011-.3-1.811-.908-2.395-.602-.59-1.433-.878-2.48-.878" fill-rule="nonzero"/><path d="M1290.28 254.37h17.922v22.39h-17.922v-22.39" fill="#fff"/><path d="M1292.94 265.567c0-1.607.132-3.025.403-4.252.271-1.228.614-2.189 1.029-2.884a5.809 5.809 0 011.492-1.693c.578-.433 1.132-.722 1.668-.867a6.427 6.427 0 011.691-.216c4.188 0 6.283 3.358 6.283 10.074 0 3.16-.536 5.575-1.613 7.245-1.071 1.67-2.63 2.505-4.67 2.505-2.059 0-3.623-.844-4.689-2.532-1.065-1.688-1.594-4.149-1.594-7.38m10.128-.055c0-5.163-1.282-7.745-3.845-7.745-2.564 0-3.846 2.609-3.846 7.827 0 5.272 1.264 7.908 3.791 7.908 1.337 0 2.317-.65 2.949-1.95.632-1.3.951-3.313.951-6.04" fill-rule="nonzero"/><path d="M1379.32 254.37h17.922v22.39h-17.922v-22.39" fill="#fff"/><path d="M1388.13 257.74c-1.373 0-2.317.375-2.829 1.124-.518.749-.794 1.747-.831 2.992h-2.383c.091-4.134 2.095-6.201 6.012-6.201 1.824 0 3.256.469 4.297 1.408 1.036.939 1.553 2.23 1.553 3.873 0 1.949-.891 3.276-2.678 3.981 1.156.397 1.986.952 2.492 1.665.505.714.758 1.684.758 2.911 0 1.824-.59 3.277-1.775 4.361-1.18 1.083-2.757 1.625-4.725 1.625-3.936 0-6.048-2.068-6.337-6.202h2.383c.091 1.39.458 2.419 1.108 3.087.65.668 1.625 1.002 2.924 1.002 1.246 0 2.221-.338 2.925-1.015.704-.677 1.06-1.621 1.06-2.831 0-2.329-1.331-3.493-3.985-3.493l-.999.027h-.3v-2.031c1.715-.036 2.93-.253 3.647-.65.71-.397 1.065-1.183 1.065-2.356 0-1.011-.301-1.81-.903-2.397-.608-.586-1.432-.88-2.479-.88" fill-rule="nonzero"/><path d="M1468.36 254.37h17.922v22.39h-17.922v-22.39" fill="#fff"/><path d="M1471.02 265.567c0-1.607.133-3.025.404-4.252.27-1.228.613-2.189 1.029-2.884.415-.695.914-1.26 1.492-1.693.578-.433 1.132-.722 1.667-.867a6.432 6.432 0 011.691-.216c4.189 0 6.283 3.358 6.283 10.074 0 3.16-.535 5.575-1.613 7.245-1.071 1.67-2.63 2.505-4.67 2.505-2.058 0-3.623-.844-4.688-2.532-1.065-1.688-1.595-4.149-1.595-7.38m10.129-.055c0-5.163-1.282-7.745-3.846-7.745-2.563 0-3.845 2.609-3.845 7.827 0 5.272 1.263 7.908 3.791 7.908 1.336 0 2.317-.65 2.949-1.95.632-1.3.951-3.313.951-6.04M260.61 198.2c-1.075-1.97-3.344-3.045-6.09-3.045-2.03 0-4.24.597-6.389 1.732-3.941 2.09-6.329 5.612-6.329 8.658 0 .835.179 1.671.597 2.448 1.075 1.97 3.344 2.985 6.09 2.985 2.03 0 4.239-.537 6.389-1.672 3.941-2.09 6.329-5.612 6.329-8.658 0-.835-.179-1.671-.597-2.448M260.61 145.956c-1.075-1.971-3.344-3.045-6.09-3.045-2.03 0-4.24.597-6.389 1.731-3.941 2.09-6.329 5.613-6.329 8.658 0 .836.179 1.672.597 2.448 1.075 1.97 3.344 2.985 6.09 2.985 2.03 0 4.239-.537 6.389-1.671 3.941-2.09 6.329-5.613 6.329-8.658 0-.836-.179-1.672-.597-2.448M349.652 168.347c-1.075-1.971-3.343-3.046-6.09-3.046-2.03 0-4.239.597-6.389 1.732-3.941 2.09-6.329 5.613-6.329 8.658 0 .836.179 1.671.597 2.448 1.075 1.97 3.344 2.985 6.09 2.985 2.031 0 4.24-.537 6.389-1.672 3.941-2.09 6.329-5.612 6.329-8.657 0-.836-.179-1.672-.597-2.448M405.303 123.565c-1.075-1.97-3.344-3.045-6.09-3.045-2.03 0-4.239.597-6.389 1.731-3.941 2.09-6.329 5.613-6.329 8.658 0 .836.179 1.672.597 2.448 1.075 1.971 3.344 2.986 6.09 2.986 2.03 0 4.24-.538 6.389-1.672 3.941-2.09 6.329-5.613 6.329-8.658 0-.836-.179-1.672-.597-2.448M460.955 198.2c-1.075-1.97-3.344-3.045-6.091-3.045-2.03 0-4.239.597-6.388 1.732-3.941 2.09-6.329 5.612-6.329 8.658 0 .835.179 1.671.597 2.448 1.074 1.97 3.343 2.985 6.09 2.985 2.03 0 4.239-.537 6.389-1.672 3.94-2.09 6.329-5.612 6.329-8.658 0-.835-.179-1.671-.597-2.448M516.609 145.956c-1.075-1.971-3.344-3.045-6.091-3.045-2.03 0-4.239.597-6.388 1.731-3.941 2.09-6.329 5.613-6.329 8.658 0 .836.179 1.672.597 2.448 1.074 1.97 3.343 2.985 6.09 2.985 2.03 0 4.239-.537 6.389-1.671 3.94-2.09 6.329-5.613 6.329-8.658 0-.836-.179-1.672-.597-2.448M572.259 168.347c-1.075-1.971-3.344-3.046-6.09-3.046-2.03 0-4.24.597-6.389 1.732-3.941 2.09-6.329 5.613-6.329 8.658 0 .836.179 1.671.597 2.448 1.075 1.97 3.344 2.985 6.09 2.985 2.03 0 4.239-.537 6.389-1.672 3.941-2.09 6.329-5.612 6.329-8.657 0-.836-.179-1.672-.597-2.448M627.909 175.81c-1.074-1.971-3.343-3.045-6.09-3.045-2.03 0-4.239.597-6.389 1.731-3.94 2.09-6.329 5.613-6.329 8.658 0 .836.179 1.672.597 2.448 1.075 1.97 3.344 2.985 6.091 2.985 2.03 0 4.239-.537 6.388-1.672 3.941-2.089 6.329-5.612 6.329-8.657 0-.836-.179-1.672-.597-2.448M683.56 183.273c-1.075-1.97-3.344-3.045-6.091-3.045-2.03 0-4.239.597-6.388 1.732-3.941 2.09-6.329 5.612-6.329 8.658 0 .835.179 1.671.597 2.448 1.074 1.97 3.343 2.985 6.09 2.985 2.03 0 4.239-.537 6.389-1.672 3.94-2.09 6.329-5.612 6.329-8.657a5.12 5.12 0 00-.597-2.449M683.56 145.956c-1.075-1.971-3.344-3.045-6.091-3.045-2.03 0-4.239.597-6.388 1.731-3.941 2.09-6.329 5.613-6.329 8.658 0 .836.179 1.672.597 2.448 1.074 1.97 3.343 2.985 6.09 2.985 2.03 0 4.239-.537 6.389-1.671 3.94-2.09 6.329-5.613 6.329-8.658 0-.836-.179-1.672-.597-2.448M772.599 131.029c-1.075-1.971-3.344-3.045-6.09-3.045-2.03 0-4.24.597-6.389 1.731-3.941 2.09-6.329 5.613-6.329 8.658 0 .836.179 1.672.597 2.448 1.075 1.97 3.344 2.985 6.09 2.985 2.03 0 4.239-.537 6.389-1.671 3.941-2.09 6.329-5.613 6.329-8.658 0-.836-.179-1.672-.597-2.448M861.644 198.2c-1.074-1.97-3.343-3.045-6.09-3.045-2.03 0-4.239.597-6.389 1.732-3.94 2.09-6.329 5.612-6.329 8.658 0 .835.179 1.671.597 2.448 1.075 1.97 3.344 2.985 6.091 2.985 2.03 0 4.239-.537 6.388-1.672 3.941-2.09 6.329-5.612 6.329-8.658 0-.835-.179-1.671-.597-2.448M861.644 153.419c-1.074-1.97-3.343-3.045-6.09-3.045-2.03 0-4.239.597-6.389 1.731-3.94 2.09-6.329 5.613-6.329 8.658 0 .836.179 1.672.597 2.448 1.075 1.97 3.344 2.986 6.091 2.986 2.03 0 4.239-.538 6.388-1.672 3.941-2.09 6.329-5.613 6.329-8.658 0-.836-.179-1.672-.597-2.448M917.295 145.956c-1.075-1.971-3.344-3.045-6.091-3.045-2.03 0-4.239.597-6.388 1.731-3.941 2.09-6.329 5.613-6.329 8.658 0 .836.179 1.672.597 2.448 1.074 1.97 3.343 2.985 6.09 2.985 2.03 0 4.239-.537 6.389-1.671 3.94-2.09 6.329-5.613 6.329-8.658 0-.836-.179-1.672-.597-2.448M972.945 168.347c-1.075-1.971-3.344-3.046-6.09-3.046-2.03 0-4.24.597-6.389 1.732-3.941 2.09-6.329 5.613-6.329 8.658 0 .836.179 1.671.597 2.448 1.075 1.97 3.344 2.985 6.09 2.985 2.03 0 4.239-.537 6.389-1.672 3.941-2.09 6.329-5.612 6.329-8.657 0-.836-.179-1.672-.597-2.448M1028.6 123.565c-1.075-1.97-3.343-3.045-6.09-3.045-2.03 0-4.239.597-6.389 1.731-3.941 2.09-6.329 5.613-6.329 8.658 0 .836.179 1.672.597 2.448 1.075 1.971 3.344 2.986 6.09 2.986 2.031 0 4.24-.538 6.389-1.672 3.941-2.09 6.329-5.613 6.329-8.658 0-.836-.179-1.672-.597-2.448M1084.25 198.2c-1.075-1.97-3.344-3.045-6.091-3.045-2.03 0-4.239.597-6.388 1.732-3.941 2.09-6.329 5.612-6.329 8.658 0 .835.179 1.671.597 2.448 1.074 1.97 3.343 2.985 6.09 2.985 2.03 0 4.239-.537 6.389-1.672 3.94-2.09 6.329-5.612 6.329-8.658 0-.835-.179-1.671-.597-2.448M1139.9 145.956c-1.075-1.971-3.344-3.045-6.09-3.045-2.03 0-4.24.597-6.389 1.731-3.941 2.09-6.329 5.613-6.329 8.658 0 .836.179 1.672.597 2.448 1.075 1.97 3.344 2.985 6.09 2.985 2.03 0 4.239-.537 6.389-1.671 3.941-2.09 6.329-5.613 6.329-8.658 0-.836-.179-1.672-.597-2.448M1195.55 168.347c-1.075-1.971-3.343-3.046-6.09-3.046-2.03 0-4.239.597-6.389 1.732-3.941 2.09-6.329 5.613-6.329 8.658 0 .836.179 1.671.597 2.448 1.075 1.97 3.344 2.985 6.09 2.985 2.031 0 4.24-.537 6.389-1.672 3.941-2.09 6.329-5.612 6.329-8.657 0-.836-.179-1.672-.597-2.448M1251.2 175.81c-1.075-1.971-3.344-3.045-6.091-3.045-2.03 0-4.239.597-6.388 1.731-3.941 2.09-6.33 5.613-6.33 8.658 0 .836.18 1.672.598 2.448 1.074 1.97 3.343 2.985 6.09 2.985 2.03 0 4.239-.537 6.389-1.672 3.94-2.089 6.329-5.612 6.329-8.657 0-.836-.179-1.672-.597-2.448M1306.85 205.664c-1.075-1.971-3.344-3.046-6.09-3.046-2.03 0-4.24.598-6.389 1.732-3.941 2.09-6.329 5.613-6.329 8.658 0 .836.179 1.672.597 2.448 1.075 1.97 3.344 2.985 6.09 2.985 2.03 0 4.239-.537 6.389-1.672 3.941-2.089 6.329-5.612 6.329-8.657 0-.836-.179-1.672-.597-2.448M1306.85 138.492c-1.075-1.97-3.344-3.045-6.09-3.045-2.03 0-4.24.597-6.389 1.731-3.941 2.09-6.329 5.613-6.329 8.658 0 .836.179 1.672.597 2.448 1.075 1.971 3.344 2.986 6.09 2.986 2.03 0 4.239-.538 6.389-1.672 3.941-2.09 6.329-5.613 6.329-8.658 0-.836-.179-1.672-.597-2.448M1395.9 123.565c-1.075-1.97-3.343-3.045-6.09-3.045-2.03 0-4.239.597-6.389 1.731-3.941 2.09-6.329 5.613-6.329 8.658 0 .836.179 1.672.597 2.448 1.075 1.971 3.344 2.986 6.09 2.986 2.031 0 4.24-.538 6.389-1.672 3.941-2.09 6.329-5.613 6.329-8.658 0-.836-.179-1.672-.597-2.448M1484.94 138.492c-1.075-1.97-3.344-3.045-6.091-3.045-2.03 0-4.239.597-6.388 1.731-3.941 2.09-6.33 5.613-6.33 8.658 0 .836.18 1.672.598 2.448 1.074 1.971 3.343 2.986 6.09 2.986 2.03 0 4.239-.538 6.389-1.672 3.94-2.09 6.329-5.613 6.329-8.658 0-.836-.179-1.672-.597-2.448M149.607 154.738c-.735-3.242-2.311-5.522-2.777-6.144-1.904-2.549-4.299-4.251-7.099-5.057-1.857-.531-3.648-.597-5.093-.489-.621-3.589-1.218-7.1-1.762-10.354 3.248-3.678 5.416-7.141 6.771-9.708 2.072-3.929 2.759-6.664 2.789-6.783 1.027-3.111 1.242-7.708.585-12.61-.603-4.508-1.851-8.515-3.254-10.455-.615-.854-1.242-1.29-1.863-1.29-.729 0-2.227.74-3.953 2.394-1.373 1.314-3.326 3.636-4.854 7.225-1.791 4.215-1.917 9.882-1.708 13.894.227 4.341.89 7.738.896 7.768.012.054.167.949.436 2.484-.138.137-.281.269-.43.412-.621.597-1.332 1.278-2.156 2.102-.513.513-1.08 1.056-1.678 1.636-5.051 4.866-12.687 12.222-12.687 23.656 0 2.806.537 5.445 1.6 7.84.949 2.149 2.322 4.108 4.072 5.821 4.615 4.508 10.938 6.425 15.154 6.329 1.761-.042 3.331-.185 4.758-.454 1.093 5.732 1.774 9.93 1.798 13.118.024 3.887-.962 6.258-3.29 7.912-1.451 1.033-3.129 1.6-4.98 1.689a11.866 11.866 0 01-3.75-.453h-.006s-.173-.048-.179-.168c-.006-.107.203-.137.209-.137h.012c1.147-.263 3.278-.997 4.687-2.967 1.075-1.505 1.595-4.264.496-6.616-.663-1.427-2.162-3.188-5.517-3.457-1.487-.12-2.842.185-4.036.901-1.081.645-1.977 1.624-2.604 2.819-1.468 2.806-1.194 6.227.675 8.52 1.767 2.161 4.526 3.541 7.768 3.887a14.76 14.76 0 002.788.024c-.716.197-1.361.525-1.88.979a4.023 4.023 0 00-1.392 3.081c0 1.117.371 1.935 1.26 2.765-.68.274-1.194.561-1.648.907-.919.699-1.463 1.732-1.463 2.765 0 1.946 1.768 3.248 4.407 3.248 3.23 0 5.487-1.791 5.487-4.347 0-1.332-.597-2.49-1.69-3.296 1.75-.722 2.562-1.726 2.562-3.147a2.868 2.868 0 00-1.123-2.31c-.722-.567-1.713-.866-2.866-.866h-.107c1.654-.322 3.23-.919 4.597-1.767 2.186-1.535 3.452-3.911 3.858-7.273.334-2.77.101-6.299-.735-11.117-.215-1.248-.537-3.058-.931-5.303 3.433-1.146 5.917-3.278 8.168-6.77 1.964-3.428 2.531-7.07 1.678-10.838m-18.498 55.786c-1.314 0-2.185-.848-2.185-2.108 0-1.134.549-2.096 1.546-2.711.215.114.269.144.472.245.71.358.71.358.86.448l.006.006c1.14.651 1.606 1.266 1.606 2.114-.006 1.14-.991 2.006-2.305 2.006m3.535-9.5c0 .979-.347 1.618-1.272 2.329-.86-.448-1.093-.579-1.314-.711l-.059-.035c-.926-.562-1.212-.968-1.212-1.72 0-1.075.824-1.827 1.994-1.827 1.182.006 1.863.722 1.863 1.964m-3.081-92.81c1.063-3.427 2.699-5.368 3.887-6.401 1.045-.907 2.03-1.331 2.579-1.331.084 0 .155.012.215.03.275.083.591.423.872.943 1.379 2.561.937 6.568.137 9.219-.973 3.224-2.716 6.574-7.965 12.318l-.286-1.875c-.753-4.95-.562-9.291.561-12.903m-2.389 62.168c-2.77-.728-5.415-2.221-7.66-4.311-.782-.734-1.899-2.03-2.777-4.054-.812-1.887-1.206-3.935-1.176-6.078.042-2.801.824-5.679 2.323-8.539 1.743-3.331 4.466-6.633 8.084-9.816a57.356 57.356 0 002.454-2.292c.454 2.543.95 5.343 1.475 8.257-2.299.758-5.135 2.639-6.992 6.013-2.107 3.923-2.024 7.219-1.588 9.296.561 2.663 2.072 4.908 4.138 6.156.555.335 3.021 1.606 4.12 1.26.221-.072.382-.203.465-.4.305-.699-.304-1.081-1.235-1.654a18.437 18.437 0 01-1.195-.788c-1.982-1.487-2.848-4.144-2.209-6.759a7.468 7.468 0 012.209-3.738c.997-.925 2.215-1.582 3.637-1.964 1.218 6.711 2.448 13.369 3.427 18.36.077.412.161.812.239 1.212-2.627.556-5.219.502-7.739-.161m15.375-6.096c-.698 1.899-2.167 4.329-5.23 5.559-.042-.251-.09-.508-.137-.765-.926-5.23-2.078-11.786-3.249-18.509 6.18-.287 8.73 4.156 9.261 7.039.281 1.511.281 4.162-.645 6.676M183.429 140.462h-4.538v-25.674a.69.69 0 00-.716-.717h-5.912c-.119 0-.238.06-.358.12l-.239.239-6.687 11.583c-.06.119-.06.239-.06.358 0 .239.18.478.359.597l1.134.657c.12.06.239.12.358.12.239 0 .478-.18.597-.359l4.24-7.284v20.36h-4.538a.69.69 0 00-.717.717v1.314a.69.69 0 00.717.716h16.36c.418 0 .657-.299.657-.716v-1.314c0-.418-.239-.717-.657-.717M201.109 127.745h.119c4.777-1.851 5.075-4.956 5.075-6.031v-.298c0-.538-.179-7.285-10.449-7.285-10.269 0-9.971 7.285-9.971 7.285h.06l-.06.119c0 2.149 1.732 3.821 3.881 3.821 2.15 0 3.822-1.672 3.822-3.821 0-1.732-1.314-3.403-2.986-3.762l.179-.179c.836-.597 1.971-.895 3.105-.895 2.508 0 5.195 1.492 5.195 4.717 0 3.761-2.807 4.299-3.523 4.418-.717.119-4.06.358-4.777.358-.716 0-.776.836-.776.836v1.194s.12.657.776.717c1.015.059 2.389.059 4.299.358 2.627.358 4.001 2.15 4.001 6.329 0 4.001-2.687 5.075-5.195 5.075-1.672 0-3.224-.477-3.881-.955 1.97-.119 3.583-1.851 3.583-3.821 0-2.15-1.672-3.881-3.822-3.881a3.873 3.873 0 00-3.881 3.881s-.298 2.686 2.329 5.135c2.328 2.149 5.254 2.209 6.568 2.209 5.732 0 11.941-1.971 11.941-8.479 0-4.359-2.985-6.209-5.612-7.045M192.967 156.925c1.988-1.498 3.367-3.403 3.367-5.797 0-4.323-4.711-7.822-10.521-7.822-5.809 0-10.52 3.505-10.52 7.822 0 2.394.597 4.543 3.421 6.311-2.723 1.594-4.185 3.779-4.185 6.627 0 4.825 5.051 8.736 11.284 8.736 6.234 0 11.285-3.911 11.285-8.736-.006-2.848-1.039-5.564-4.131-7.141m-7.159 12.521c-3.798 0-7.1-2.078-7.1-5.409 0-4.001 3.087-4.962 3.087-4.962 4.06 1.355 9.876 3.403 9.876 6.663 0 1.63-2.066 3.708-5.863 3.708m3.815-14.163c-4.066-1.259-8.532-3.236-8.532-5.947 0-2.346 2.149-3.278 4.717-3.278 3.678 0 6.215 1.726 6.215 4.473 0 2.866-1.325 4.227-2.4 4.752" fill-rule="nonzero"/><path d="M259.56 79.889h1225.97v7.463H259.56v-7.463M348.603 91.084h279.895v7.464H348.603v-7.464M860.596 91.084h391.201v7.464H860.596v-7.464"/><path d="M179.631 33.678h-1.983v27.071c-.682-.404-1.513-.664-2.466-.762a7.38 7.38 0 00-.805-.04c-1.639 0-3.405.47-5.052 1.362-1.921 1.036-3.455 2.517-4.318 4.17-.867 1.658-.957 3.29-.253 4.597.834 1.545 2.643 2.347 4.784 2.347 1.589 0 3.362-.444 5.056-1.354 3.098-1.672 5.026-4.434 5.037-6.843V33.678M193.022 65.172h18.2V61.02h-18.2v4.152m0-7.438h18.2v-4.153h-18.2v4.153m43.728-1.12c0 3.142-.217 5.02-.723 6.717-.866 2.6-2.166 3.791-4.261 3.791-.758 0-1.191-.252-1.191-.722 0-.217.072-.433.217-.65.649-1.047.722-1.264.722-2.058 0-1.733-1.228-2.925-3.033-2.925-1.986 0-3.431 1.517-3.431 3.611 0 2.816 2.636 4.622 6.716 4.622 3.72 0 6.717-1.517 8.631-4.369 1.769-2.672 2.708-6.103 2.708-10.075 0-3.322-.722-5.777-2.239-7.835-1.842-2.456-4.478-3.792-7.511-3.792-5.236 0-9.027 3.647-9.027 8.666 0 4.261 3.033 7.403 7.15 7.403 2.238 0 3.755-.686 5.272-2.384m-3.106-11.807c.939 0 1.733.578 2.167 1.625.469 1.047.794 2.961.794 4.658 0 3.177-1.155 5.2-2.997 5.2a2.705 2.705 0 01-2.419-1.553c-.434-.903-.614-2.167-.614-3.972 0-3.936 1.047-5.958 3.069-5.958m13.503 9.966c-.83.867-.939 1.047-.939 1.625 0 .758.578 1.336 1.336 1.336.795 0 1.481-.65 1.481-1.444 0-.145-.036-.362-.072-.578 1.119-.903 2.491-1.372 4.008-1.372 2.708 0 4.08 1.986 4.08 5.885 0 4.406-1.553 6.717-4.441 6.717-1.625 0-3.178-.759-3.178-1.517 0-.217.108-.325.433-.505 1.445-.686 1.95-1.373 1.95-2.6 0-1.806-1.227-2.961-3.069-2.961-2.094 0-3.466 1.444-3.466 3.683 0 3.611 3.249 5.958 8.232 5.958 5.922 0 9.967-3.611 9.967-8.955 0-4.694-3.792-8.161-8.992-8.161-1.697 0-2.78.289-5.199 1.372l.541-4.658c1.734.361 3.142.542 4.55.542 2.997 0 5.489-1.011 6.825-2.781.686-.902 1.227-2.238 1.227-3.033 0-.252-.108-.397-.288-.397-.145 0-.362.036-.578.108-1.3.325-3.647.506-6.536.506-3.033 0-4.839-.144-7.041-.614-.181 3.033-.181 3.322-.614 9.244l-.217 2.6" fill-rule="nonzero"/></svg>